<?xml version="1.0" standalone="no"?>
<!DOCTYPE svg PUBLIC "-//W3C//DTD SVG 20010904//EN"
 "http://www.w3.org/TR/2001/REC-SVG-20010904/DTD/svg10.dtd">
<svg version="1.0" xmlns="http://www.w3.org/2000/svg"
 width="3380.000000pt" height="700.000000pt" viewBox="0 0 3380.000000 700.000000"
 preserveAspectRatio="xMidYMid meet">

<g transform="translate(0.000000,700.000000) scale(0.100000,-0.100000)"
fill="#000000" stroke="none">
<path d="M700 3470 l0 -3130 3130 0 3130 0 0 3130 0 3130 -3130 0 -3130 0 0
-3130z m5160 -10 l0 -190 -2035 0 -2035 0 0 190 0 190 2035 0 2035 0 0 -190z"/>
<path d="M13215 6589 c-265 -40 -497 -126 -695 -259 -115 -77 -297 -255 -367
-360 -147 -219 -220 -445 -230 -710 -21 -547 277 -1026 791 -1271 256 -122
542 -175 853 -158 328 19 636 128 883 312 138 103 301 300 379 456 189 379
186 854 -6 1236 -38 75 -135 212 -203 288 -185 203 -470 365 -771 436 -164 38
-477 53 -634 30z m528 -478 c196 -52 334 -128 462 -256 49 -50 105 -116 123
-147 171 -289 186 -629 43 -923 -121 -246 -330 -407 -634 -488 -71 -18 -109
-21 -282 -22 -209 0 -237 4 -389 52 -208 65 -400 213 -505 390 -169 285 -172
682 -6 958 145 239 375 394 672 450 115 22 411 14 516 -14z"/>
<path d="M16835 6588 c-291 -16 -573 -108 -810 -263 -113 -74 -303 -261 -375
-369 -100 -149 -174 -331 -207 -509 -23 -125 -23 -360 0 -487 111 -601 581
-1021 1249 -1115 131 -18 411 -21 544 -5 315 38 589 134 814 285 52 35 105 73
118 83 l23 18 -127 184 c-69 102 -128 187 -130 189 -2 2 -47 -26 -101 -61
-160 -107 -320 -173 -530 -221 -86 -19 -127 -21 -328 -21 -215 0 -236 2 -326
26 -370 100 -600 317 -686 647 -81 313 -3 642 205 863 135 143 293 229 522
285 107 26 468 26 590 0 212 -45 378 -113 542 -224 54 -36 100 -64 102 -62 5
6 241 352 249 365 4 8 -30 36 -91 75 -369 240 -777 344 -1247 317z"/>
<path d="M9940 6569 c-492 -26 -848 -194 -980 -463 -64 -128 -82 -246 -60
-386 40 -248 216 -424 544 -539 172 -61 356 -101 831 -181 368 -62 529 -112
621 -193 137 -121 100 -300 -86 -414 -57 -35 -207 -81 -321 -97 -123 -18 -407
-21 -544 -6 -271 31 -549 116 -814 249 -57 29 -107 49 -112 44 -9 -10 -190
-395 -187 -398 2 -2 57 -30 123 -63 438 -218 869 -305 1393 -281 442 21 803
157 982 371 64 77 126 203 146 298 19 88 14 232 -11 325 -81 309 -374 503
-937 619 -67 14 -247 46 -398 71 -513 87 -668 145 -716 270 -53 139 60 255
296 306 121 26 450 37 596 20 203 -24 434 -83 671 -172 72 -27 135 -49 140
-48 6 0 176 337 191 378 3 9 -129 71 -263 124 -224 89 -512 151 -753 162 -59
3 -132 7 -162 9 -30 1 -116 -1 -190 -5z"/>
<path d="M18730 5205 l0 -1315 245 0 245 0 0 1315 0 1315 -245 0 -245 0 0
-1315z"/>
<path d="M19940 5205 l0 -1315 1235 0 1235 0 0 220 0 220 -995 0 -995 0 0 340
0 340 740 0 740 0 0 220 0 220 -740 0 -740 0 0 310 0 310 950 0 950 0 0 225 0
225 -1190 0 -1190 0 0 -1315z"/>
<path d="M22670 6300 l0 -220 530 0 530 0 0 -1095 0 -1095 245 0 245 0 0 1095
0 1095 530 0 530 0 0 220 0 220 -1305 0 -1305 0 0 -220z"/>
<path d="M25680 5205 l0 -1315 1230 0 1230 0 0 220 0 220 -990 0 -990 0 0 340
0 340 740 0 740 0 0 220 0 220 -740 0 -740 0 0 310 0 310 950 0 950 0 0 225 0
225 -1190 0 -1190 0 0 -1315z"/>
<path d="M10250 3103 c-537 -19 -992 -254 -1257 -648 -173 -257 -246 -604
-197 -934 45 -308 160 -540 373 -751 205 -204 443 -327 766 -396 149 -32 450
-44 628 -24 319 34 675 149 920 298 l77 47 0 512 0 513 -235 0 -235 0 0 -384
0 -383 -77 -31 c-112 -43 -198 -68 -326 -94 -96 -20 -143 -23 -327 -23 -144 0
-238 5 -285 14 -392 78 -659 312 -753 660 -22 84 -26 115 -25 246 0 174 17
256 84 394 115 242 329 412 614 488 96 26 111 27 340 27 209 0 253 -3 338 -22
203 -45 365 -113 525 -219 45 -31 84 -54 86 -52 5 6 241 352 249 365 9 16
-142 117 -288 191 -286 146 -638 218 -995 206z"/>
<path d="M12190 1715 l0 -1315 1235 0 1235 0 0 220 0 220 -990 0 -990 0 0 340
0 340 740 0 740 0 0 220 0 220 -740 0 -740 0 0 315 0 315 950 0 950 0 0 220 0
220 -1195 0 -1195 0 0 -1315z"/>
<path d="M15150 1715 l0 -1315 241 0 242 0 -7 923 c-3 507 -9 951 -12 986 -5
44 -3 62 4 60 9 -3 443 -504 1506 -1736 l200 -233 243 0 243 0 0 1315 0 1315
-235 0 -235 0 0 -607 c0 -566 11 -1086 26 -1280 3 -46 2 -83 -2 -83 -5 0 -393
443 -863 985 l-855 985 -248 0 -248 0 0 -1315z"/>
<path d="M18480 1715 l0 -1315 1235 0 1235 0 0 220 0 220 -990 0 -990 0 0 340
0 340 735 0 735 0 0 220 0 220 -735 0 -735 0 0 315 0 315 950 0 950 0 0 220 0
220 -1195 0 -1195 0 0 -1315z"/>
<path d="M21460 1720 l0 -1310 245 0 245 0 0 480 0 480 393 0 392 -1 364 -484
364 -485 300 0 c262 0 298 2 293 15 -3 8 -172 225 -376 481 -204 256 -374 472
-377 480 -3 9 2 14 15 14 39 0 199 52 277 90 213 104 352 269 417 495 19 68
23 102 22 230 -1 133 -4 160 -27 238 -70 228 -198 383 -402 481 -112 55 -225
83 -380 96 -66 5 -490 10 -942 10 l-823 0 0 -1310z m1864 835 c163 -57 241
-178 241 -370 0 -76 -5 -99 -27 -147 -48 -103 -148 -178 -288 -216 -45 -12
-169 -15 -677 -19 l-623 -5 0 391 0 391 653 0 652 0 69 -25z"/>
<path d="M25502 2988 c-11 -24 -147 -302 -302 -618 -155 -316 -306 -624 -335
-685 -29 -60 -181 -372 -338 -693 -185 -377 -282 -585 -274 -588 7 -2 126 -3
265 -2 l252 3 148 315 148 315 714 0 714 0 148 -315 148 -315 257 0 c167 0
257 4 256 10 -1 6 -273 564 -604 1240 -330 677 -617 1263 -636 1303 l-34 72
-254 0 -254 0 -19 -42z m536 -990 c133 -282 242 -516 242 -520 0 -5 -223 -8
-495 -8 -272 0 -495 3 -495 8 0 13 493 1032 500 1032 4 0 115 -231 248 -512z"/>
<path d="M27670 1715 l0 -1315 1115 0 1115 0 0 220 0 220 -875 0 -875 0 0
1095 0 1095 -240 0 -240 0 0 -1315z"/>
<path d="M30230 1715 l0 -1315 1235 0 1235 0 0 220 0 220 -990 0 -990 0 0 340
0 340 735 0 735 0 0 220 0 220 -735 0 -735 0 0 315 0 315 950 0 950 0 0 220 0
220 -1195 0 -1195 0 0 -1315z"/>
</g>
</svg>
